<svg width="320" height="320" viewBox="0 0 320 320" fill="none" xmlns="http://www.w3.org/2000/svg">
  <rect width="320" height="320" fill="white"/>
  <g opacity="0.28" fill="#2563EB">
    <circle cx="20" cy="20" r="1.5"/><circle cx="52" cy="20" r="1.5"/><circle cx="84" cy="20" r="1.5"/><circle cx="116" cy="20" r="1.5"/><circle cx="148" cy="20" r="1.5"/><circle cx="180" cy="20" r="1.5"/><circle cx="212" cy="20" r="1.5"/><circle cx="244" cy="20" r="1.5"/><circle cx="276" cy="20" r="1.5"/>
    <circle cx="20" cy="52" r="1.5"/><circle cx="52" cy="52" r="1.5"/><circle cx="84" cy="52" r="1.5"/><circle cx="116" cy="52" r="1.5"/><circle cx="148" cy="52" r="1.5"/><circle cx="180" cy="52" r="1.5"/><circle cx="212" cy="52" r="1.5"/><circle cx="244" cy="52" r="1.5"/><circle cx="276" cy="52" r="1.5"/>
    <circle cx="20" cy="84" r="1.5"/><circle cx="52" cy="84" r="1.5"/><circle cx="84" cy="84" r="1.5"/><circle cx="116" cy="84" r="1.5"/><circle cx="148" cy="84" r="1.5"/><circle cx="180" cy="84" r="1.5"/><circle cx="212" cy="84" r="1.5"/><circle cx="244" cy="84" r="1.5"/><circle cx="276" cy="84" r="1.5"/>
    <circle cx="20" cy="116" r="1.5"/><circle cx="52" cy="116" r="1.5"/><circle cx="84" cy="116" r="1.5"/><circle cx="116" cy="116" r="1.5"/><circle cx="148" cy="116" r="1.5"/><circle cx="180" cy="116" r="1.5"/><circle cx="212" cy="116" r="1.5"/><circle cx="244" cy="116" r="1.5"/><circle cx="276" cy="116" r="1.5"/>
    <circle cx="20" cy="148" r="1.5"/><circle cx="52" cy="148" r="1.5"/><circle cx="84" cy="148" r="1.5"/><circle cx="116" cy="148" r="1.5"/><circle cx="148" cy="148" r="1.5"/><circle cx="180" cy="148" r="1.5"/><circle cx="212" cy="148" r="1.5"/><circle cx="244" cy="148" r="1.5"/><circle cx="276" cy="148" r="1.5"/>
    <circle cx="20" cy="180" r="1.5"/><circle cx="52" cy="180" r="1.5"/><circle cx="84" cy="180" r="1.5"/><circle cx="116" cy="180" r="1.5"/><circle cx="148" cy="180" r="1.5"/><circle cx="180" cy="180" r="1.5"/><circle cx="212" cy="180" r="1.5"/><circle cx="244" cy="180" r="1.5"/><circle cx="276" cy="180" r="1.5"/>
    <circle cx="20" cy="212" r="1.5"/><circle cx="52" cy="212" r="1.5"/><circle cx="84" cy="212" r="1.5"/><circle cx="116" cy="212" r="1.5"/><circle cx="148" cy="212" r="1.5"/><circle cx="180" cy="212" r="1.5"/><circle cx="212" cy="212" r="1.5"/><circle cx="244" cy="212" r="1.5"/><circle cx="276" cy="212" r="1.5"/>
    <circle cx="20" cy="244" r="1.5"/><circle cx="52" cy="244" r="1.5"/><circle cx="84" cy="244" r="1.5"/><circle cx="116" cy="244" r="1.5"/><circle cx="148" cy="244" r="1.5"/><circle cx="180" cy="244" r="1.5"/><circle cx="212" cy="244" r="1.5"/><circle cx="244" cy="244" r="1.5"/><circle cx="276" cy="244" r="1.5"/>
    <circle cx="20" cy="276" r="1.5"/><circle cx="52" cy="276" r="1.5"/><circle cx="84" cy="276" r="1.5"/><circle cx="116" cy="276" r="1.5"/><circle cx="148" cy="276" r="1.5"/><circle cx="180" cy="276" r="1.5"/><circle cx="212" cy="276" r="1.5"/><circle cx="244" cy="276" r="1.5"/><circle cx="276" cy="276" r="1.5"/>
  </g>
</svg>
