<svg xmlns="http://www.w3.org/2000/svg" xmlns:xlink="http://www.w3.org/1999/xlink" width="127" height="127" viewBox="0 0 127 127">
  <defs>
    <clipPath id="clip-path">
      <rect id="Rectangle_1" data-name="Rectangle 1" width="126" height="126" rx="63" transform="translate(6 18)" fill="#0779db"/>
    </clipPath>
    <clipPath id="clip-path-2">
      <rect id="Rectangle_2" data-name="Rectangle 2" width="148" height="145" fill="none"/>
    </clipPath>
    <clipPath id="clip-long">
      <rect width="127" height="127"/>
    </clipPath>
  </defs>
  <g id="long" clip-path="url(#clip-long)">
    <g id="shortform" transform="translate(-6 -18)" clip-path="url(#clip-path)">
      <g id="strikeloop" transform="translate(-4 9)" clip-path="url(#clip-path-2)">
        <path id="Path_4" data-name="Path 4" d="M126.194,87.241c-5.444,0-10.64.1-15.833-.023-8.8-.216-17.342,11.322-17.438,20.258-.1,8.807,5.387,15.629,13.868,17,5.733.924,11.613.946,16.515-3.5a14.2,14.2,0,0,0,4.77-13.285c-1.115-7.365-2.753-6.009-9.359-9.1H136.49c8.329,0,28.135-.188,34.235,0s17.906,0,17.906,0-8.1,17.528-8.151,28.221-.594,19.8-3.537,25.737c-5.125,10.341-13.8,16.465-24.519,20.057a70.677,70.677,0,0,1-19.229,3.963c-6.685.307-13.476,5.21-20.162,5.241-24.162.114-48.216-4.265-72.378-4.265H37.779l.259-53.074s46.9-.7,47.133-.233c-1.308-.99-2.168-1.892-3.625-5.062a24.706,24.706,0,0,1-2.142-6.215H41.877s1.663-.094-.9-4.937a30.86,30.86,0,0,1-2.935-10.941S37.119,78.5,39.688,69.554a37.856,37.856,0,0,1,18.8-23.631A62.251,62.251,0,0,1,82.759,38.47c7.613-.7,16.4-5.163,24.036-5.221,23.994-.183,46.852,3.708,70.849,3.708h2.839V86.721Z" transform="translate(-35.248 -34.927)" fill="#0779db"/>
      </g>
    </g>
  </g>
</svg>
